<?xml version="1.0" encoding="utf-8"?>
<!-- Generator: Adobe Illustrator 21.0.2, SVG Export Plug-In . SVG Version: 6.00 Build 0)  -->
<svg version="1.1" id="Capa_1" xmlns="http://www.w3.org/2000/svg" xmlns:xlink="http://www.w3.org/1999/xlink" x="0px" y="0px"
	 viewBox="0 0 167.2 167.2" style="enable-background:new 0 0 167.2 167.2;" xml:space="preserve">
<style type="text/css">
	.st0{fill:#044180;}
	.st1{fill:#FFFFFF;}
</style>
<circle class="st0" cx="83.6" cy="83.6" r="83.6"/>
<g>
	<polygon class="st1" points="109.1,84.4 15.4,92.5 15.4,59.9 109.1,40.1 	"/>
	<polygon class="st1" points="113,84.4 153.1,92.5 153.1,59.9 113,40.1 	"/>
	<g>
		<path class="st1" d="M108.2,44.2c0.3,6.2-4.6,11.4-10.8,11.7c-6.2,0.3-11.4-4.6-11.7-10.8c-0.3-6.2,4.6-11.4,10.8-11.7
			C102.7,33.2,108,38,108.2,44.2z"/>
		
			<ellipse transform="matrix(0.9993 -3.792830e-02 3.792830e-02 0.9993 -1.8184 2.9524)" class="st1" cx="76.9" cy="49.4" rx="10.2" ry="10.2"/>
		
			<ellipse transform="matrix(0.9993 -3.792830e-02 3.792830e-02 0.9993 -2.0027 2.2348)" class="st1" cx="57.9" cy="53.9" rx="9.3" ry="9.3"/>
		
			<ellipse transform="matrix(0.9993 -3.792830e-02 3.792830e-02 0.9993 -2.194 1.5479)" class="st1" cx="39.7" cy="58.6" rx="8.4" ry="8.4"/>
		
			<ellipse transform="matrix(0.9993 -3.792830e-02 3.792830e-02 0.9993 -2.376 0.9595)" class="st1" cx="24.1" cy="63.1" rx="7.5" ry="7.5"/>
	</g>
	<rect x="15.4" y="91.2" class="st1" width="7" height="26.1"/>
	<rect x="146.1" y="91.2" class="st1" width="7" height="26.1"/>
	<rect x="28.5" y="91.2" class="st1" width="7" height="26.1"/>
	<rect x="102.1" y="81.7" class="st1" width="7" height="35.7"/>
	<rect x="113" y="81.7" class="st1" width="7" height="35.7"/>
	<rect x="80.1" y="81.7" class="st1" width="7" height="35.7"/>
	<rect x="129.5" y="81.7" class="st1" width="7" height="35.7"/>
	<rect x="61.7" y="81.7" class="st1" width="7" height="35.7"/>
	<rect x="44.1" y="81.7" class="st1" width="7" height="35.7"/>
</g>
</svg>
