<?xml version="1.0" encoding="utf-8"?>
<!-- Generator: Adobe Illustrator 21.0.2, SVG Export Plug-In . SVG Version: 6.00 Build 0)  -->
<svg version="1.1" id="Capa_1" xmlns="http://www.w3.org/2000/svg" xmlns:xlink="http://www.w3.org/1999/xlink" x="0px" y="0px"
	 viewBox="0 0 176 168.7" style="enable-background:new 0 0 176 168.7;" xml:space="preserve">
<style type="text/css">
	.st0{fill:#2B4B8A;}
	.st1{fill:#004371;}
	.st2{fill:#FFFFFF;}
	.st3{fill:#02426D;}
	.st4{fill:#294570;}
	.st5{fill:#004371;stroke:#FFFFFF;stroke-width:4;stroke-miterlimit:10;}
	.st6{fill:none;stroke:#FFFFFF;stroke-width:4;stroke-miterlimit:10;}
	.st7{fill:#FDFDFD;stroke:#02426D;stroke-width:10;stroke-miterlimit:10;}
	.st8{fill:#FDFDFD;stroke:#02426D;stroke-width:10;stroke-linecap:round;stroke-miterlimit:10;}
	.st9{fill:none;stroke:#02426D;stroke-width:10;stroke-linecap:round;stroke-miterlimit:10;}
	.st10{fill:#004878;}
	.st11{fill:none;stroke:#004371;stroke-width:8;stroke-miterlimit:10;}
</style>
<circle class="st0" cx="87.9" cy="85.3" r="84.3"/>
<g>
	<path class="st2" d="M125.4,146.6h-75c-8.1,0-14.7-6.6-14.7-14.7V36.7c0-8.1,6.6-14.7,14.7-14.7h75c8.1,0,14.7,6.6,14.7,14.7v95.2
		C140.1,140,133.5,146.6,125.4,146.6z"/>
	<rect x="61.3" y="47.9" class="st0" width="16.1" height="16.1"/>
	<rect x="61.3" y="76.3" class="st0" width="16.1" height="16.1"/>
	<rect x="61.3" y="104.7" class="st0" width="16.1" height="16.1"/>
	<polygon class="st0" points="97.4,67 88,57.5 91.3,54.3 97.6,60.6 113.4,46.2 116.5,49.6 	"/>
	<polygon class="st0" points="97.4,95.5 88,86 91.3,82.8 97.6,89.1 113.4,74.7 116.5,78.1 	"/>
	<polygon class="st0" points="97.4,124 88,114.5 91.3,111.3 97.6,117.6 113.4,103.2 116.5,106.6 	"/>
</g>
</svg>
