<?xml version="1.0" encoding="utf-8"?>
<!-- Generator: Adobe Illustrator 21.0.2, SVG Export Plug-In . SVG Version: 6.00 Build 0)  -->
<svg version="1.1" id="Capa_1" xmlns="http://www.w3.org/2000/svg" xmlns:xlink="http://www.w3.org/1999/xlink" x="0px" y="0px"
	 viewBox="0 0 164.8 164.8" style="enable-background:new 0 0 164.8 164.8;" xml:space="preserve">
<style type="text/css">
	.st0{fill:#2B4B7A;}
	.st1{fill:#FFFFFF;}
	.st2{font-family:'MyriadPro-Regular';}
	.st3{font-size:68.5883px;}
	.st4{fill:none;stroke:#FFFFFF;stroke-linecap:round;stroke-linejoin:round;stroke-miterlimit:10;}
	.st5{fill:#0C4472;}
	.st6{fill:none;stroke:#FFFFFF;stroke-width:0.25;stroke-linecap:round;stroke-linejoin:round;stroke-miterlimit:10;}
</style>
<circle class="st0" cx="81.6" cy="82.5" r="82.4"/>
<path class="st1" d="M140.1,121.4h-117c-2.5,0-4.5-2-4.5-4.5v-22c0-2.5,2-4.5,4.5-4.5h117.1c2.5,0,4.5,2,4.5,4.5V117
	C144.6,119.4,142.6,121.4,140.1,121.4z"/>
<g>
	<g>
		<text transform="matrix(1 0 0 1 21.6306 91.7963)" class="st1 st2 st3">***</text>
		<text transform="matrix(1 0 0 1 21.6306 91.7963)" class="st4 st2 st3">***</text>
		<text transform="matrix(1 0 0 1 107.3152 64.209)" class="st1 st2 st3">_</text>
		<text transform="matrix(1 0 0 1 107.3152 64.209)" class="st4 st2 st3">_</text>
	</g>
	<g>
		<text transform="matrix(1 0 0 1 24.6927 141.7963)" class="st5 st2 st3">****</text>
		<text transform="matrix(1 0 0 1 24.6927 141.7963)" class="st6 st2 st3">****</text>
	</g>
</g>
</svg>
