<?xml version="1.0" encoding="utf-8"?>
<!-- Generator: Adobe Illustrator 21.0.2, SVG Export Plug-In . SVG Version: 6.00 Build 0)  -->
<svg version="1.1" id="Capa_1" xmlns="http://www.w3.org/2000/svg" xmlns:xlink="http://www.w3.org/1999/xlink" x="0px" y="0px"
	 viewBox="0 0 176 168.7" style="enable-background:new 0 0 176 168.7;" xml:space="preserve">
<style type="text/css">
	.st0{fill:#2B4B8A;}
	.st1{fill:#004371;}
	.st2{fill:#FFFFFF;}
	.st3{fill:#02426D;}
	.st4{fill:#294570;}
	.st5{fill:#004371;stroke:#FFFFFF;stroke-width:4;stroke-miterlimit:10;}
	.st6{fill:none;stroke:#FFFFFF;stroke-width:4;stroke-miterlimit:10;}
	.st7{fill:#FDFDFD;stroke:#02426D;stroke-width:10;stroke-miterlimit:10;}
	.st8{fill:#FDFDFD;stroke:#02426D;stroke-width:10;stroke-linecap:round;stroke-miterlimit:10;}
	.st9{fill:none;stroke:#02426D;stroke-width:10;stroke-linecap:round;stroke-miterlimit:10;}
	.st10{fill:#004878;}
	.st11{fill:none;stroke:#004371;stroke-width:8;stroke-miterlimit:10;}
</style>
<circle class="st0" cx="88.5" cy="84.2" r="84.3"/>
<path class="st2" d="M133.4,132.8H44.1c-8.4,0-15.2-7.3-15.2-16.4V58c0-9,6.8-16.4,15.2-16.4h89.2c8.4,0,15.2,7.3,15.2,16.4v58.4
	C148.6,125.4,141.8,132.8,133.4,132.8z M135.1,68.9c0-2.7-2.2-4.9-4.9-4.9H84.7c-2.7,0-4.9,2.2-4.9,4.9c0,2.7,2.2,4.9,4.9,4.9h45.6
	C132.9,73.8,135.1,71.6,135.1,68.9z M135.1,83.9c0-2.7-2.2-4.9-4.9-4.9H84.7c-2.7,0-4.9,2.2-4.9,4.9s2.2,4.9,4.9,4.9h45.6
	C132.9,88.7,135.1,86.6,135.1,83.9z M135.1,98.8c0-2.7-2.2-4.9-4.9-4.9H84.7c-2.7,0-4.9,2.2-4.9,4.9s2.2,4.9,4.9,4.9h45.6
	C132.9,103.6,135.1,101.5,135.1,98.8z"/>
<rect x="44.5" y="64.8" class="st0" width="26.3" height="38.2"/>
</svg>
