<?xml version="1.0" encoding="utf-8"?>
<!-- Generator: Adobe Illustrator 20.0.0, SVG Export Plug-In . SVG Version: 6.00 Build 0)  -->
<svg version="1.1" id="Capa_1" xmlns="http://www.w3.org/2000/svg" xmlns:xlink="http://www.w3.org/1999/xlink" x="0px" y="0px"
	 viewBox="0 0 59.3 59" style="enable-background:new 0 0 59.3 59;" xml:space="preserve">
<style type="text/css">
	.st0{fill:#2B4875;}
	.st1{fill:#FFFFFF;}
</style>
<circle class="st0" cx="29.5" cy="29.5" r="29.5"/>
<path class="st1" d="M52.9,23.6h-24c-1.7-5.6-6.9-9.8-13.1-9.8C8.4,13.9,2.3,20,2.3,27.5c0,7.5,6.1,13.6,13.6,13.6
	c6.3,0,11.5-4.2,13.1-10h7.1V34c0,0.5,0.4,0.9,0.9,0.9h2.4c0.5,0,0.9-0.4,0.9-0.9v-2.8h2.6V33c0,0.5,0.4,0.9,0.9,0.9h2.4
	c0.5,0,0.9-0.4,0.9-0.9v-1.8h2.6V34c0,0.5,0.4,0.9,0.9,0.9h4.1c0.5,0,0.9-0.4,0.9-0.9v-2.8v-0.7v-4.1C55.6,24.8,54.4,23.6,52.9,23.6
	z M10,31.1c-2.3,0-4.1-1.8-4.1-4.1c0-2.3,1.8-4.1,4.1-4.1c2.3,0,4.1,1.8,4.1,4.1C14.1,29.3,12.3,31.1,10,31.1z"/>
</svg>
