<?xml version="1.0" encoding="utf-8"?>
<!-- Generator: Adobe Illustrator 21.0.0, SVG Export Plug-In . SVG Version: 6.00 Build 0)  -->
<svg version="1.1" id="Capa_1" xmlns="http://www.w3.org/2000/svg" xmlns:xlink="http://www.w3.org/1999/xlink" x="0px" y="0px"
	 viewBox="0 0 176 168.7" style="enable-background:new 0 0 176 168.7;" xml:space="preserve">
<style type="text/css">
	.st0{fill:#0C4472;}
	.st1{fill:#FFFFFF;}
	.st2{fill:#0D426E;}
	.st3{fill:#2A4670;}
</style>
<g>
	<g>
		<path class="st0" d="M124.5,88.3H15.6h-2.2c-1.2,0.6-3.6,6.8-3.6,17.2s2.2,16.5,3.6,17.2h113c-4.4-4-5.8-9.7-5.8-15.4
			C120.5,99.2,123.3,91.3,124.5,88.3z"/>
		<path class="st0" d="M128.7,88.3L128.7,88.3c-1.1,2.6-9.9,25,1.9,33.3l34.4-43.2c1.1-8,1.6-20.4-1.1-26.5l-28.8,36.2
			c-0.6,0.8-1.8,1-2.7,0.5c-0.1-0.1-0.2-0.1-0.3-0.2L128.7,88.3L128.7,88.3z"/>
	</g>
	<g>
		<path class="st0" d="M122,124.8H13.2H11c-1.2,0.6-3.6,6.8-3.6,17.2c0,10.4,2.2,16.5,3.6,17.2h112.9c-4.4-4-5.8-9.7-5.8-15.4
			C118.2,135.9,120.9,127.9,122,124.8z"/>
		<path class="st0" d="M126.4,124.8L126.4,124.8c-1.1,2.6-9.9,25,1.9,33.3l34.5-43.2c1.1-8,1.6-20.4-1.1-26.5l-28.9,36.2
			c-0.6,0.8-1.8,1-2.7,0.5c-0.1-0.1-0.2-0.1-0.3-0.2L126.4,124.8L126.4,124.8z"/>
	</g>
	<g>
		<path class="st0" d="M165.7,13.4l-34.5,38.3c-1,2.5-9.8,25,2,33.2l34.5-43.4C168.9,32.7,169.4,18.6,165.7,13.4z"/>
		<path class="st0" d="M12.2,68.6c0,10.4,2.2,16.5,3.6,17.2h113c-4.4-4-5.8-9.7-5.8-15.4c0-8,2.8-15.9,3.9-19H15.8
			C14.5,52.1,12.2,58.3,12.2,68.6z"/>
		<polygon class="st0" points="58.5,9.9 17.6,49 128.5,49 129.4,47.9 163.9,9.9 		"/>
	</g>
</g>
</svg>
