<?xml version="1.0" encoding="utf-8"?>
<!-- Generator: Adobe Illustrator 21.0.2, SVG Export Plug-In . SVG Version: 6.00 Build 0)  -->
<svg version="1.1" id="Capa_1" xmlns="http://www.w3.org/2000/svg" xmlns:xlink="http://www.w3.org/1999/xlink" x="0px" y="0px"
	 viewBox="0 0 432.7 209.8" style="enable-background:new 0 0 432.7 209.8;" xml:space="preserve">
<style type="text/css">
	.st0{fill:#CB9933;}
	.st1{fill:#20285A;}
	.st2{fill:#FFFFFF;}
	.st3{fill:none;stroke:#20285A;stroke-width:14;}
	.st4{fill:none;stroke:#FFFFFF;stroke-width:3;}
	.st5{fill-rule:evenodd;clip-rule:evenodd;fill:#004B7E;}
	.st6{fill:#274875;}
	.st7{fill-rule:evenodd;clip-rule:evenodd;fill:#FFFFFF;}
	.st8{fill-rule:evenodd;clip-rule:evenodd;fill:#004F85;}
	.st9{enable-background:new    ;}
	.st10{fill:#003050;}
	.st11{fill:#002A46;}
	.st12{clip-path:url(#SVGID_2_);enable-background:new    ;}
	.st13{fill:#002A47;}
	.st14{fill:#002C49;}
	.st15{fill:#002D4C;}
	.st16{fill:#002F4E;}
	.st17{fill:#003051;}
	.st18{fill:#003253;}
	.st19{fill:#003356;}
	.st20{clip-path:url(#SVGID_4_);enable-background:new    ;}
	.st21{fill:#002944;}
	.st22{fill:#002742;}
	.st23{fill:#003F6A;}
	.st24{clip-path:url(#SVGID_6_);enable-background:new    ;}
	.st25{fill:#00263F;}
	.st26{clip-path:url(#SVGID_8_);enable-background:new    ;}
	.st27{clip-path:url(#SVGID_10_);enable-background:new    ;}
	.st28{clip-path:url(#SVGID_12_);enable-background:new    ;}
	.st29{clip-path:url(#SVGID_14_);enable-background:new    ;}
	.st30{clip-path:url(#SVGID_16_);enable-background:new    ;}
	.st31{fill:#002C4A;}
	.st32{clip-path:url(#SVGID_18_);enable-background:new    ;}
	.st33{fill:#00416D;}
	.st34{clip-path:url(#SVGID_20_);enable-background:new    ;}
	.st35{fill:#002B48;}
	.st36{clip-path:url(#SVGID_22_);enable-background:new    ;}
	.st37{clip-path:url(#SVGID_24_);enable-background:new    ;}
	.st38{clip-path:url(#SVGID_26_);enable-background:new    ;}
	.st39{clip-path:url(#SVGID_28_);enable-background:new    ;}
	.st40{clip-path:url(#SVGID_30_);enable-background:new    ;}
	.st41{clip-path:url(#SVGID_32_);enable-background:new    ;}
	.st42{clip-path:url(#SVGID_34_);enable-background:new    ;}
	.st43{clip-path:url(#SVGID_36_);enable-background:new    ;}
	.st44{clip-path:url(#SVGID_38_);enable-background:new    ;}
	.st45{clip-path:url(#SVGID_40_);enable-background:new    ;}
	.st46{clip-path:url(#SVGID_42_);enable-background:new    ;}
	.st47{clip-path:url(#SVGID_44_);enable-background:new    ;}
	.st48{clip-path:url(#SVGID_46_);enable-background:new    ;}
	.st49{clip-path:url(#SVGID_48_);enable-background:new    ;}
	.st50{clip-path:url(#SVGID_50_);enable-background:new    ;}
	.st51{clip-path:url(#SVGID_52_);enable-background:new    ;}
	.st52{clip-path:url(#SVGID_54_);enable-background:new    ;}
	.st53{clip-path:url(#SVGID_56_);enable-background:new    ;}
	.st54{clip-path:url(#SVGID_58_);enable-background:new    ;}
	.st55{clip-path:url(#SVGID_60_);enable-background:new    ;}
	.st56{clip-path:url(#SVGID_62_);enable-background:new    ;}
	.st57{clip-path:url(#SVGID_64_);enable-background:new    ;}
	.st58{clip-path:url(#SVGID_66_);enable-background:new    ;}
	.st59{clip-path:url(#SVGID_68_);enable-background:new    ;}
	.st60{clip-path:url(#SVGID_70_);enable-background:new    ;}
	.st61{clip-path:url(#SVGID_72_);enable-background:new    ;}
	.st62{clip-path:url(#SVGID_74_);enable-background:new    ;}
	.st63{fill:#00426F;}
	.st64{fill:#002843;}
	.st65{fill:#004B7E;}
	.st66{fill:none;stroke:#FFFFFF;stroke-miterlimit:10;}
	.st67{fill-rule:evenodd;clip-rule:evenodd;fill:#FFFFFF;stroke:#274875;stroke-miterlimit:10;}
	.st68{fill:#002844;}
	.st69{clip-path:url(#SVGID_76_);enable-background:new    ;}
	.st70{clip-path:url(#SVGID_78_);enable-background:new    ;}
	.st71{clip-path:url(#SVGID_80_);enable-background:new    ;}
	.st72{fill:#002640;}
	.st73{clip-path:url(#SVGID_82_);enable-background:new    ;}
	.st74{clip-path:url(#SVGID_84_);enable-background:new    ;}
	.st75{clip-path:url(#SVGID_86_);enable-background:new    ;}
	.st76{clip-path:url(#SVGID_88_);enable-background:new    ;}
	.st77{fill:#002945;}
	.st78{clip-path:url(#SVGID_90_);enable-background:new    ;}
	.st79{fill:#002B47;}
	.st80{clip-path:url(#SVGID_92_);enable-background:new    ;}
	.st81{clip-path:url(#SVGID_94_);enable-background:new    ;}
	.st82{clip-path:url(#SVGID_96_);enable-background:new    ;}
	.st83{clip-path:url(#SVGID_98_);enable-background:new    ;}
	.st84{clip-path:url(#SVGID_100_);enable-background:new    ;}
	.st85{clip-path:url(#SVGID_102_);enable-background:new    ;}
	.st86{clip-path:url(#SVGID_104_);enable-background:new    ;}
	.st87{clip-path:url(#SVGID_106_);enable-background:new    ;}
	.st88{clip-path:url(#SVGID_108_);enable-background:new    ;}
	.st89{clip-path:url(#SVGID_110_);enable-background:new    ;}
	.st90{clip-path:url(#SVGID_112_);enable-background:new    ;}
	.st91{clip-path:url(#SVGID_114_);enable-background:new    ;}
	.st92{clip-path:url(#SVGID_116_);enable-background:new    ;}
	.st93{clip-path:url(#SVGID_118_);enable-background:new    ;}
	.st94{fill:#004879;}
	.st95{fill:#004776;}
	.st96{fill:#004574;}
	.st97{fill:#004471;}
	.st98{fill:#00416C;}
	.st99{clip-path:url(#SVGID_120_);enable-background:new    ;}
	.st100{clip-path:url(#SVGID_122_);enable-background:new    ;}
	.st101{clip-path:url(#SVGID_124_);enable-background:new    ;}
	.st102{fill:#003960;}
	.st103{fill:#00385D;}
	.st104{clip-path:url(#SVGID_126_);enable-background:new    ;}
	.st105{clip-path:url(#SVGID_128_);enable-background:new    ;}
	.st106{fill:#003558;}
	.st107{fill:#00365B;}
	.st108{fill:#003B62;}
	.st109{fill:#003C65;}
	.st110{fill:#003E67;}
	.st111{clip-path:url(#SVGID_130_);enable-background:new    ;}
	.st112{clip-path:url(#SVGID_132_);enable-background:new    ;}
	.st113{fill:#004A7B;}
	.st114{clip-path:url(#SVGID_134_);enable-background:new    ;}
	.st115{clip-path:url(#SVGID_136_);enable-background:new    ;}
	.st116{clip-path:url(#SVGID_138_);enable-background:new    ;}
	.st117{clip-path:url(#SVGID_140_);enable-background:new    ;}
	.st118{fill:#00385E;}
	.st119{fill:#003E68;}
	.st120{clip-path:url(#SVGID_142_);enable-background:new    ;}
	.st121{clip-path:url(#SVGID_144_);enable-background:new    ;}
	.st122{fill:#FFFFFF;stroke:#274875;stroke-miterlimit:10;}
	.st123{fill:none;stroke:#274875;stroke-miterlimit:10;}
</style>
<polygon class="st0" points="141.9,53.8 79.7,0.1 432.7,0.1 432.7,150.1 222.7,150.1 "/>
<rect x="217.2" y="135.3" class="st1" width="215.4" height="74.4"/>
<path class="st2" d="M297.2,155.1h7v25.3c0,2.9,0.4,4.9,1.1,5.9c0.7,1,2,1.5,3.8,1.5c1.8,0,3-0.5,3.7-1.6c0.7-1,1-3,1-6v-25.2h6.9
	v26c0.1,1.9-0.1,3.7-0.4,5.5c-0.3,1.1-0.7,2.2-1.4,3.1c-1,1.4-2.4,2.4-4,3c-1.9,0.7-3.9,1-5.9,1c-4.3,0-7.3-0.9-9.1-2.8
	c-1.8-1.9-2.6-5.1-2.6-9.8V155.1L297.2,155.1z"/>
<path class="st2" d="M326.3,192.7v-37.6h7.2l9.8,26.3l-0.2-26.3h6.6v37.6h-7.1l-9.9-26.3l0.2,26.3H326.3L326.3,192.7z"/>
<path class="st2" d="M353.4,192.7l8.5-37.6h9.4l8.5,37.6h-7.5l-1.9-9.5h-8.1l-1.8,9.5H353.4L353.4,192.7z M363.5,177.6h6l-3-15.8
	L363.5,177.6z"/>
<path class="st2" d="M383.6,192.7v-37.6h10.5l5.1,24.3l5.1-24.3h10.5v37.6h-6.7l0.1-33.4l-7,33.4h-4.3l-7-33.4l0.2,33.4H383.6
	L383.6,192.7z"/>
<path class="st3" d="M152.7,22.3l-17.9,35.2l-3.1-1.8c0.1-0.7,0.1-1.3,0.1-1.8c0-2.5-2.1-5.2-6.4-8c-13-9.1-28.3-13.6-45.8-13.6
	c-6.9-0.1-13.8,0.8-20.5,2.8c-4,1.3-7.6,3.5-10.5,6.6c-2.5,2.5-3.9,5.9-4,9.5c0,5.6,3.4,9.4,10.2,11.5c3.5,1,11,2.1,22.6,3.3
	l17.2,1.8c8.4,0.8,16.7,2.3,24.8,4.5c6,1.7,11.7,4.4,16.8,8c5,3.7,9.1,8.5,11.8,14.1c2.9,5.8,4.4,12.2,4.3,18.7
	c0.1,10.3-3.5,20.2-10.2,28c-6.1,7.4-15.7,13-28.6,16.5c-10.1,2.8-20.5,4.1-31,4c-19.8,0-39.3-4.7-58.6-14.2
	c-4.1-1.9-6.5-2.9-7.3-2.9c-0.9,0-2.4,0.8-4.5,2.4l-3.2-1.6l16.2-36.7l3.2,1.5v1.4c0,3.3,1.6,6.3,4.7,9.1c4.7,4.2,12.1,7.9,22,11
	c9.1,2.9,18.7,4.5,28.3,4.6c9.7,0,18-1.6,24.9-4.9c3.6-1.6,6.7-4.1,9.1-7.3c2.1-2.7,3.3-6,3.4-9.5c0-5-2.7-8.5-8-10.6
	c-3.7-1.5-11.3-2.8-22.6-4l-16.9-1.8c-11.3-1.2-19.3-2.3-24-3.3c-4.9-1.1-9.6-2.8-14-5.1c-6.6-3.3-12.1-8.5-15.6-14.9
	c-3.5-6.2-5.3-13.3-5.2-20.4c0-12.7,4.3-23.1,13-31.4C38.9,12.5,56,7,78.8,7c9-0.1,18,0.9,26.8,2.9c8.3,1.9,18.6,5.5,30.9,10.7
	c4.2,1.7,6.8,2.5,7.8,2.5c1.5,0,3.3-0.8,5.4-2.5L152.7,22.3z"/>
<path class="st3" d="M201,164.7h-68l-10.1,21c-1.4,2.9-2.1,5.2-2.1,6.9c0,3.2,2.4,5.4,7.3,6.7v3.5H78.7v-3.5
	c2.5-0.4,4.8-1.4,6.7-3.1c1.5-1.5,3.3-4.3,5.3-8.5l55-114.9c1.8-3.7,2.6-6.6,2.6-8.8c0-3.3-2.1-5.7-6.4-7.2v-3.5h53v3.5
	c-4.3,1.2-6.5,3.4-6.5,6.5c0.1,2.5,0.8,5,2.1,7.2l57,115.2c2.4,4.9,4.5,8.2,6.4,10c2,1.9,4.6,3.1,7.3,3.6v3.5h-55v-3.5
	c4.8-0.8,7.3-3.1,7.3-6.8c0-1.5-0.7-3.8-2.2-6.8L201,164.7z M191.6,144.2l-24.3-53.3l-24.6,53.3H191.6z"/>
<path class="st0" d="M253.9,195.7c-1.8-1.8-3.9-5.1-6.4-10L190.6,70.4c-1.3-2.2-2-4.7-2.1-7.2c0-3.1,2.2-5.2,6.5-6.5v-3.5h-53v3.5
	c4.2,1.5,6.4,3.9,6.4,7.2c0,2.2-0.9,5.1-2.6,8.8l-5.3,11c-1.3-1.2-2.6-2.4-4-3.4c-5.1-3.6-10.8-6.3-16.8-8
	c-8.1-2.2-16.4-3.7-24.8-4.5l-17.2-1.8C66,64.9,58.5,63.8,55,62.8c-6.8-2-10.2-5.9-10.2-11.5c0.1-3.6,1.5-7,4-9.5
	c2.9-3,6.5-5.3,10.5-6.6c6.6-2,13.5-3,20.5-2.8c17.5,0,32.8,4.5,45.8,13.6c4.2,2.8,6.4,5.5,6.4,8c0,0.4,0,1-0.1,1.8l3.1,1.8
	l17.9-35.2l-3.1-1.6c-2,1.7-3.8,2.5-5.4,2.5c-0.9,0-3.5-0.8-7.8-2.5c-12.3-5.2-22.6-8.8-30.9-10.7c-8.8-2-17.7-3-26.7-2.9
	C56,7,39,12.4,27.6,23.3c-8.7,8.3-13,18.7-13,31.4c-0.1,7.1,1.6,14.2,5.1,20.4c3.6,6.4,9.1,11.6,15.7,14.8c4.4,2.3,9.1,4,14,5.1
	c4.7,1.1,12.7,2.2,24,3.3l16.9,1.8c11.3,1.2,18.9,2.6,22.6,4c5.3,2.1,8,5.6,8,10.6c-0.1,3.4-1.3,6.8-3.4,9.5
	c-2.4,3.1-5.5,5.6-9.1,7.3c-6.9,3.3-15.2,4.9-24.9,4.9c-9.6-0.1-19.1-1.7-28.3-4.6c-9.9-3.1-17.3-6.7-22-11
	c-3.1-2.8-4.7-5.8-4.7-9.1v-1.4l-3.2-1.5L9.1,145.4l3.2,1.7c2-1.6,3.5-2.4,4.5-2.4c0.8,0,3.2,1,7.3,2.9
	c19.3,9.5,38.8,14.2,58.6,14.2c7.1,0,14.2-0.6,21.3-1.8l-13.3,27.7c-2,4.2-3.8,7.1-5.3,8.5c-1.9,1.6-4.2,2.7-6.7,3.1v3.5h49.5v-3.5
	c-4.9-1.2-7.3-3.5-7.3-6.7c0-1.7,0.7-4,2.1-6.9l10.1-21h68l10.3,21c1.5,3,2.2,5.3,2.2,6.8c0,3.7-2.4,6-7.3,6.8v3.5h55v-3.5
	C258.5,198.8,255.9,197.6,253.9,195.7z M142.7,144.2l24.6-53.3l24.3,53.3H142.7z"/>
<path class="st4" d="M253.9,195.7c-1.8-1.8-3.9-5.1-6.4-10L190.6,70.4c-1.3-2.2-2-4.7-2.1-7.2c0-3.1,2.2-5.2,6.5-6.5v-3.5h-53v3.5
	c4.2,1.5,6.4,3.9,6.4,7.2c0,2.2-0.9,5.1-2.6,8.8l-5.3,11c-1.3-1.2-2.6-2.4-4-3.4c-5.1-3.6-10.8-6.3-16.8-8
	c-8.1-2.2-16.4-3.7-24.8-4.5l-17.2-1.8C66,64.9,58.5,63.8,55,62.8c-6.8-2-10.2-5.9-10.2-11.5c0.1-3.6,1.5-7,4-9.5
	c2.9-3,6.5-5.3,10.5-6.6c6.6-2,13.5-3,20.5-2.8c17.5,0,32.8,4.5,45.8,13.6c4.2,2.8,6.4,5.5,6.4,8c0,0.4,0,1-0.1,1.8l3.1,1.8
	l17.9-35.2l-3.1-1.6c-2,1.7-3.8,2.5-5.4,2.5c-0.9,0-3.5-0.8-7.8-2.5c-12.3-5.2-22.6-8.8-30.9-10.7c-8.8-2-17.7-3-26.7-2.9
	C56,7,39,12.4,27.6,23.3c-8.7,8.3-13,18.7-13,31.4c-0.1,7.1,1.6,14.2,5.1,20.4c3.6,6.4,9.1,11.6,15.7,14.8c4.4,2.3,9.1,4,14,5.1
	c4.7,1.1,12.7,2.2,24,3.3l16.9,1.8c11.3,1.2,18.9,2.6,22.6,4c5.3,2.1,8,5.6,8,10.6c-0.1,3.4-1.3,6.8-3.4,9.5
	c-2.4,3.1-5.5,5.6-9.1,7.3c-6.9,3.3-15.2,4.9-24.9,4.9c-9.6-0.1-19.1-1.7-28.3-4.6c-9.9-3.1-17.3-6.7-22-11
	c-3.1-2.8-4.7-5.8-4.7-9.1v-1.4l-3.2-1.5L9.1,145.4l3.2,1.7c2-1.6,3.5-2.4,4.5-2.4c0.8,0,3.2,1,7.3,2.9
	c19.3,9.5,38.8,14.2,58.6,14.2c7.1,0,14.2-0.6,21.3-1.8l-13.3,27.7c-2,4.2-3.8,7.1-5.3,8.5c-1.9,1.6-4.2,2.7-6.7,3.1v3.5h49.5v-3.5
	c-4.9-1.2-7.3-3.5-7.3-6.7c0-1.7,0.7-4,2.1-6.9l10.1-21h68l10.3,21c1.5,3,2.2,5.3,2.2,6.8c0,3.7-2.4,6-7.3,6.8v3.5h55v-3.5
	C258.5,198.8,255.9,197.6,253.9,195.7z M142.7,144.2l24.6-53.3l24.3,53.3H142.7z"/>
<path class="st2" d="M290.6,54.5c-1.2,1.6-3,2.6-5,2.6c-2,0-3.8-1-4.9-2.7c-1.7-2.1-2.6-5.2-2.6-9.1h2.8c0,2.3,0.5,4,1.6,5
	c1.8,1.6,4.5,1.6,6.2,0c1.2-1.2,1.7-2.8,1.6-4.5c0-2.5-1-4.2-2.9-5c-0.5-0.2-1-0.4-1.4-0.5l-1.4-0.6h0c-0.9-0.3-1.8-0.7-2.8-1.1
	c-2.2-1.6-3.3-4.8-3.3-9.6c-0.1-3,0.7-5.9,2.3-8.4c1.5-2.6,4.8-3.5,7.4-2c0.9,0.5,1.6,1.2,2,2c1.6,2.2,2.4,5.2,2.4,9h-2.9
	c0-2.2-0.5-3.8-1.5-4.8c-0.7-0.8-1.7-1.3-2.8-1.3c-1.1,0-2.1,0.5-2.9,1.3h0c-1,1.2-1.6,2.7-1.5,4.3c0,2.6,1,4.3,2.9,5.1l1.4,0.6
	l1.4,0.6l1.4,0.6c0.5,0.2,0.9,0.4,1.4,0.6c2.2,1.7,3.3,4.8,3.3,9.3C293.2,49.5,292.4,52.3,290.6,54.5z"/>
<path class="st2" d="M295.8,56.2V22.4h12v5.2h-9.4v9.1h7.3v5.2h-7.3V51h9.4v5.2L295.8,56.2L295.8,56.2z"/>
<path class="st2" d="M323.8,51.8c-1.8,3.5-3.9,5.2-6.3,5.2c-2.4,0-4.5-1.7-6.3-5.2c-0.9-1.8-1.6-3.8-2-5.8c-0.5-2.2-0.7-4.5-0.6-6.8
	c-0.1-4.3,0.8-8.6,2.6-12.5c1.7-3.5,3.8-5.3,6.3-5.3s4.6,1.9,6.5,5.6l-1.9,3.6c-1.3-2.7-2.9-4-4.6-4c-1.7,0-3.2,1.2-4.5,3.7
	c-2.4,5.7-2.4,12,0,17.7c1.2,2.5,2.7,3.7,4.5,3.7s3.3-1.3,4.6-4l1.7,3.2L323.8,51.8z"/>
<path class="st2" d="M337.2,56.2l-3.8-11.7c-0.6-1.8-1.5-2.6-2.8-2.6h-2.2v14.4h-2.6V22.4h7.2c1.5,0,2.7,0.9,3.7,2.6
	c1.2,2.2,1.7,4.6,1.7,7.1c0,2-0.4,4.1-1.1,5.9c-0.3,0.6-0.6,1.2-1,1.8c-0.3,0.5-0.7,0.9-1.2,1.3c0.2,0.4,0.4,0.7,0.5,1.1
	c0.2,0.5,0.4,1,0.6,1.6l4,12.4H337.2L337.2,56.2z M335,28.9c-0.4-0.7-1.1-1.2-1.9-1.3h-4.6v9.1h4.6c0.8-0.1,1.5-0.5,1.9-1.2
	c0.6-1,0.9-2.1,0.9-3.3C335.9,31,335.6,29.9,335,28.9L335,28.9z"/>
<path class="st2" d="M341.5,56.2V22.4h12v5.2h-9.4v9.1h7.3v5.2h-7.3V51h9.4v5.2L341.5,56.2L341.5,56.2z"/>
<path class="st2" d="M363.1,27.6v28.6h-2.6V27.6h-5.3v-5.2h13.3v5.2H363.1L363.1,27.6z"/>
<path class="st2" d="M378.9,56.2l-1.3-7.4h-6.7l-1.4,7.4h-2.7l6.1-33.9h2.6l6.1,33.9L378.9,56.2L378.9,56.2z M371.9,43.7h4.8
	l-2.4-13.2L371.9,43.7z"/>
<path class="st2" d="M394.5,56.2l-3.8-11.7c-0.6-1.8-1.5-2.6-2.8-2.6h-2.2v14.4h-2.6V22.4h7.2c1.5,0,2.7,0.9,3.7,2.6
	c1.2,2.2,1.7,4.6,1.7,7.1c0,2-0.4,4.1-1.2,5.9c-0.3,0.6-0.6,1.2-1,1.8c-0.3,0.5-0.7,0.9-1.2,1.3c0.2,0.4,0.4,0.7,0.5,1.1
	c0.2,0.5,0.4,1,0.6,1.6l4,12.4L394.5,56.2L394.5,56.2z M392.3,28.9c-0.4-0.7-1.1-1.2-1.9-1.3h-4.6v9.1h4.6c0.8-0.1,1.5-0.5,1.9-1.2
	c0.6-1,0.9-2.1,0.9-3.3C393.2,31,392.9,29.9,392.3,28.9L392.3,28.9z"/>
<path class="st2" d="M398.9,56.2V22.4h2.6v33.9L398.9,56.2L398.9,56.2z M400.9,20.2H399l1.5-6h2.8L400.9,20.2z"/>
<path class="st2" d="M415,56.2l-1.4-7.4H407l-1.4,7.4h-2.7l6.1-33.9h2.6l6.1,33.9H415L415,56.2z M408,43.7h4.8l-2.4-13.2L408,43.7z"
	/>
<path class="st2" d="M243.4,104.2l-1.5-8.2h-7.5l-1.5,8.2h-3l6.8-37.5h2.8l6.9,37.5H243.4L243.4,104.2z M235.4,90.4h5.4l-2.7-14.9
	L235.4,90.4z"/>
<path class="st2" d="M260.3,99.2c-1.7,3.3-3.7,5-6,5h-6.4V70.4h6.4c2.4,0,4.4,1.7,6,5c1.8,3.7,2.6,7.8,2.5,11.9
	C262.9,91.4,262.1,95.5,260.3,99.2z M258.5,79c-1.1-2.3-2.5-3.4-4.2-3.4h-3.8V99h3.8c1.6,0,3-1.1,4.2-3.4
	C260.8,90.3,260.8,84.3,258.5,79L258.5,79z"/>
<path class="st2" d="M279.4,104.2v-25l-4.6,25h-2.5l-4.5-25.1v25.1h-2.6V70.4h3.7l4.7,25.8l4.7-25.8h3.7v33.9L279.4,104.2
	L279.4,104.2z"/>
<path class="st2" d="M284.9,104.2V70.4h2.6v33.9L284.9,104.2L284.9,104.2z"/>
<path class="st2" d="M301.7,104.2L293.1,80v24.2h-2.6V70.4h2.5l8.6,24.2V70.4h2.6v33.9L301.7,104.2L301.7,104.2z"/>
<path class="st2" d="M307.1,104.2V70.4h2.6v33.9L307.1,104.2L307.1,104.2z"/>
<path class="st2" d="M323.4,102.7c-1.7,2.5-5.1,3.1-7.5,1.4c-0.6-0.4-1-0.9-1.4-1.4c-1.6-1.9-2.3-4.7-2.3-8.3h2.6
	c0,2.2,0.5,3.6,1.4,4.5c0.8,0.7,1.8,1.1,2.9,1.1c1,0,2-0.4,2.8-1.1c1-1.1,1.6-2.5,1.5-4c0-2.2-0.9-3.7-2.6-4.4h0
	c-0.5-0.2-0.9-0.4-1.3-0.5l-1.3-0.5l-1.3-0.5l-1.2-0.5c-2-1.5-3.1-4.4-3.1-8.6c-0.1-2.7,0.6-5.4,2.1-7.6c0.9-1.5,2.6-2.4,4.3-2.5
	c1.7,0.1,3.3,1,4.2,2.5c1.5,1.9,2.2,4.7,2.2,8.2h-2.6c0.1-1.6-0.3-3.1-1.3-4.3c-0.6-0.7-1.5-1.1-2.5-1.1c-1,0-1.9,0.4-2.5,1.1
	c-0.9,1.1-1.4,2.4-1.3,3.9c0,2.3,0.9,3.8,2.5,4.5l2.5,1.1c0.5,0.2,0.9,0.4,1.3,0.5l1.3,0.5c2,1.5,3.1,4.3,3.1,8.4
	C325.9,97.6,325.1,100.4,323.4,102.7z"/>
<path class="st2" d="M334.8,75.6v28.6h-2.6V75.6h-5.3v-5.2h13.3v5.2H334.8L334.8,75.6z"/>
<path class="st2" d="M353.2,104.2l-3.8-11.7c-0.6-1.8-1.5-2.7-2.8-2.6h-2.2v14.4h-2.6V70.4h7.2c1.5,0,2.7,0.9,3.7,2.6
	c1.2,2.2,1.7,4.6,1.7,7.1c0,2-0.4,4.1-1.1,5.9c-0.3,0.6-0.6,1.2-1,1.8c-0.3,0.5-0.7,0.9-1.2,1.3c0.2,0.4,0.4,0.7,0.5,1.1
	c0.2,0.5,0.4,1,0.6,1.6l4,12.4H353.2L353.2,104.2z M350.9,76.9c-0.4-0.7-1.1-1.2-1.9-1.3h-4.6v9.1h4.6c0.8-0.1,1.5-0.5,1.9-1.2
	c0.6-1,0.9-2.1,0.9-3.3C351.9,79,351.5,77.9,350.9,76.9L350.9,76.9z"/>
<path class="st2" d="M369.1,104.2l-1.4-7.4H361l-1.4,7.4h-2.7l6.1-33.9h2.6l6.1,33.9H369.1z M362,91.7h4.8l-2.4-13.2L362,91.7z"/>
<path class="st2" d="M378.1,75.6v28.6h-2.6V75.6h-5.3v-5.2h13.3v5.2H378.1L378.1,75.6z"/>
<path class="st2" d="M385.1,104.2V70.4h2.6v33.9L385.1,104.2L385.1,104.2z"/>
<path class="st2" d="M397.9,104.2h-2.6l-6.1-33.9h2.7l4.8,25.8l4.7-25.8h2.8L397.9,104.2z"/>
<path class="st2" d="M415,104.2l-1.4-7.4H407l-1.4,7.4h-2.7l6.1-33.9h2.6l6.1,33.9H415L415,104.2z M408,91.7h4.8l-2.4-13.2L408,91.7
	z"/>
</svg>
