<?xml version="1.0" encoding="utf-8"?>
<!-- Generator: Adobe Illustrator 21.0.2, SVG Export Plug-In . SVG Version: 6.00 Build 0)  -->
<svg version="1.1" id="Capa_1" xmlns="http://www.w3.org/2000/svg" xmlns:xlink="http://www.w3.org/1999/xlink" x="0px" y="0px"
	 viewBox="0 0 169.1 168.7" style="enable-background:new 0 0 169.1 168.7;" xml:space="preserve">
<style type="text/css">
	.st0{fill:#2B4B7A;}
	.st1{fill:#FFFFFF;}
	.st2{fill:none;stroke:#2B4B7A;stroke-width:6;stroke-linecap:round;stroke-linejoin:round;stroke-miterlimit:10;}
</style>
<title>nuevo</title>
<circle class="st0" cx="83.8" cy="85.2" r="84.3"/>
<g>
	<path class="st1" d="M123.6,147.7H44c-5.8,0-10.5-4.7-10.5-10.5V33.3c0-5.8,4.7-10.5,10.5-10.5h79.6c5.8,0,10.5,4.7,10.5,10.5
		v103.9C134.1,143,129.4,147.7,123.6,147.7z"/>
	<path class="st0" d="M108.2,42.2V21.7h13.9c7.1,0,12.8,5.7,12.8,12.8v17h-17.4C112.4,51.4,108.2,47.3,108.2,42.2z"/>
	<line class="st2" x1="55.4" y1="71.2" x2="99" y2="71.2"/>
	<line class="st2" x1="55.4" y1="88.6" x2="112.1" y2="88.6"/>
	<line class="st2" x1="55.4" y1="106.1" x2="112.1" y2="106.1"/>
	<line class="st2" x1="55.4" y1="123.5" x2="112.1" y2="123.5"/>
</g>
</svg>
