<?xml version="1.0" encoding="utf-8"?>
<!-- Generator: Adobe Illustrator 21.0.2, SVG Export Plug-In . SVG Version: 6.00 Build 0)  -->
<svg version="1.1" id="Capa_1" xmlns="http://www.w3.org/2000/svg" xmlns:xlink="http://www.w3.org/1999/xlink" x="0px" y="0px"
	 viewBox="0 0 168.8 168.7" style="enable-background:new 0 0 168.8 168.7;" xml:space="preserve">
<style type="text/css">
	.st0{fill:#0C4472;}
	.st1{fill:#FFFFFF;}
	.st2{fill:none;stroke:#FFFFFF;stroke-width:17;stroke-miterlimit:10;}
</style>
<circle class="st0" cx="83.6" cy="84.3" r="84.3"/>
<path class="st1" d="M107.4,119.1L84.2,92.3c-0.4-0.4-1.1-0.4-1.4,0l-23.1,26.8c-0.7,0.9-2.1-0.1-1.5-1.1l18.3-30.4
	c0.3-0.5,0.1-1.1-0.4-1.3L43.4,72.7c-1.1-0.4-0.6-2,0.6-1.8l34.5,8c0.6,0.2,1.1-0.2,1.1-0.8l2.9-35.3c0.1-1.1,1.7-1.1,1.9,0l3,35.3
	c0.1,0.6,0.6,1,1.1,0.8l34.5-8.2c1.1-0.2,1.6,1.3,0.6,1.8L91.1,86.3c-0.5,0.2-0.7,0.8-0.4,1.3l18.4,30.3
	C109.5,119,108.1,119.9,107.4,119.1z"/>
<circle class="st2" cx="83.6" cy="84.3" r="44.6"/>
<circle class="st1" cx="69" cy="65.7" r="4.5"/>
<ellipse transform="matrix(0.9744 -0.2248 0.2248 0.9744 -12.3402 23.5851)" class="st1" cx="97.4" cy="66" rx="4.5" ry="4.5"/>
<ellipse transform="matrix(0.8351 -0.5501 0.5501 0.8351 -32.81 72.5447)" class="st1" cx="104.6" cy="91" rx="4.5" ry="4.5"/>
<ellipse transform="matrix(0.6322 -0.7748 0.7748 0.6322 -51.7895 103.8278)" class="st1" cx="83.5" cy="106.5" rx="4.5" ry="4.5"/>
<ellipse transform="matrix(0.3313 -0.9435 0.9435 0.3313 -44.066 119.6487)" class="st1" cx="62.4" cy="90.9" rx="4.5" ry="4.5"/>
</svg>
