<?xml version="1.0" encoding="utf-8"?>
<!-- Generator: Adobe Illustrator 21.0.2, SVG Export Plug-In . SVG Version: 6.00 Build 0)  -->
<svg version="1.1" id="Capa_1" xmlns="http://www.w3.org/2000/svg" xmlns:xlink="http://www.w3.org/1999/xlink" x="0px" y="0px"
	 viewBox="0 0 169.1 168.7" style="enable-background:new 0 0 169.1 168.7;" xml:space="preserve">
<style type="text/css">
	.st0{fill:#2B4B7A;}
	.st1{fill:#FFFFFF;}
</style>
<title>nuevo</title>
<circle class="st0" cx="84.5" cy="85.2" r="84.3"/>
<path class="st1" d="M96.6,67.3V23.9c0-3.4-2.7-6.1-6.1-6.1H78.5c-3.4,0-6.1,2.7-6.1,6.1v43.4c0,3.4-2.7,6.1-6.1,6.1H25
	c-3.4,0-6.1,2.7-6.1,6.1v11c0,3.4,2.7,6.1,6.1,6.1h41.3c3.4,0,6.1,2.7,6.1,6.1v43.8c0,3.4,2.7,6.1,6.1,6.1l0,0h11.9
	c3.4,0,6.1-2.7,6.1-6.1l0,0v-43.8c0-3.4,2.7-6.1,6.1-6.1h41.2c3.4,0,6.1-2.7,6.1-6.1l0,0v-11c0-3.4-2.7-6.1-6.1-6.1l0,0h-41.2
	C99.3,73.4,96.5,70.7,96.6,67.3C96.5,67.3,96.5,67.3,96.6,67.3z"/>
</svg>
