<?xml version="1.0" encoding="utf-8"?>
<!-- Generator: Adobe Illustrator 21.0.0, SVG Export Plug-In . SVG Version: 6.00 Build 0)  -->
<svg version="1.1" id="Capa_1" xmlns="http://www.w3.org/2000/svg" xmlns:xlink="http://www.w3.org/1999/xlink" x="0px" y="0px"
	 viewBox="0 0 176 168.7" style="enable-background:new 0 0 176 168.7;" xml:space="preserve">
<style type="text/css">
	.st0{fill:#0C4472;}
	.st1{fill:#FFFFFF;}
	.st2{fill:#0D426E;}
</style>
<path class="st1" d="M159.8,28.3H19.1c-4.9,0-8.8,4-8.8,8.8v104.7h158.3V37.1C168.6,32.2,164.6,28.3,159.8,28.3z M75,94.8V79.9h24.7
	v14.8H75z M99.7,100.8v14.8H75v-14.8H99.7z M99.7,59.6v14.3H75V59.6H99.7z M69,59.6v14.3H44.4V59.6H69z M69,79.9v14.8H44.4V79.9H69z
	 M105.7,79.9h24.7v14.8h-24.7V79.9z M105.7,73.9V59.6h24.7v14.3H105.7z M16.3,59.6h22.1v14.3H16.3V59.6z M38.4,79.9v14.8H16.3V79.9
	H38.4z M38.4,100.8v14.8H16.3v-14.8H38.4z M44.4,100.8H69v14.8H44.4V100.8z M69,121.6v14.2H44.4v-14.2H69z M75,121.6h24.7v14.2H75
	V121.6z M105.7,121.6h24.7v14.2h-24.7V121.6z M105.7,115.6v-14.8h24.7v14.8H105.7z M136.4,100.8h26.2v14.8h-26.2V100.8z M136.4,94.8
	V79.9h26.2v14.8H136.4z M136.4,73.9V59.6h26.2v14.3H136.4z M16.3,121.6h22.1v14.2H16.3V121.6z M136.4,135.7v-14.2h26.2v14.2H136.4z"
	/>
</svg>
