<?xml version="1.0" encoding="utf-8"?>
<!-- Generator: Adobe Illustrator 21.0.0, SVG Export Plug-In . SVG Version: 6.00 Build 0)  -->
<svg version="1.1" id="Capa_1" xmlns="http://www.w3.org/2000/svg" xmlns:xlink="http://www.w3.org/1999/xlink" x="0px" y="0px"
	 viewBox="0 0 176 168.7" style="enable-background:new 0 0 176 168.7;" xml:space="preserve">
<style type="text/css">
	.st0{fill:#0C4472;}
	.st1{fill:#FFFFFF;}
	.st2{fill:#0D426E;}
</style>
<path class="st0" d="M-33,133.9l-63.6-53.1c4-7.1,6.3-15.3,6.3-24.1c0-27.1-22.1-49.2-49.2-49.2s-49.2,22.1-49.2,49.2
	s22.1,49.2,49.2,49.2c12.5,0,24-4.7,32.7-12.4l52,62.3c0.6,0.7,1.3,1.4,2,2c6.6,5.5,16.3,4.6,21.8-2
	C-25.6,149.1-26.4,139.3-33,133.9z M-139.4,90.9c-18.9,0-34.2-15.4-34.2-34.2s15.4-34.2,34.2-34.2c18.9,0,34.2,15.4,34.2,34.2
	S-120.6,90.9-139.4,90.9z"/>
<path class="st1" d="M90.1,6.7c22.6,0,40.9,18.3,40.9,40.9s-18.3,40.9-40.9,40.9S49.2,70.2,49.2,47.6S67.5,6.7,90.1,6.7z
	 M25.3,156.8c0-33.6,27.2-60.7,60.7-60.7h8c33.6,0,60.7,27.2,60.7,60.7"/>
<path class="st0" d="M307,77.4l-6.6,0.5c-1.1-3.9-2.6-7.8-4.7-11.3l5-4.3c1.7-1.5,1.8-4.1,0.2-5.7L288,43.7
	c-1.6-1.6-4.3-1.5-5.7,0.2l-4.3,5c-3.6-2.1-7.4-3.7-11.3-4.7l0.5-6.6c0.1-2.2-1.6-4.2-3.9-4.2h-18.2c-2.2,0-4.1,1.9-3.9,4.2l0.5,6.6
	c-3.9,1.1-7.8,2.6-11.3,4.7l-4.3-5c-1.5-1.7-4.1-1.8-5.7-0.2l-12.9,12.8c-1.6,1.6-1.5,4.3,0.2,5.7l5,4.3c-2.1,3.6-3.7,7.4-4.7,11.3
	l-6.6-0.5c-2.2-0.1-4.2,1.6-4.2,3.9v18.2c0,2.2,1.9,4.1,4.2,3.9l6.6-0.5c1.1,3.9,2.6,7.8,4.7,11.3l-5,4.3c-1.7,1.5-1.8,4.1-0.2,5.7
	l12.9,12.9c1.6,1.6,4.3,1.5,5.7-0.2l4.3-5c3.6,2.1,7.4,3.7,11.3,4.7l-0.5,6.6c-0.1,2.2,1.6,4.2,3.9,4.2h18.2c2.2,0,4.1-1.9,3.9-4.2
	l-0.5-6.6c3.9-1.1,7.8-2.6,11.3-4.7l4.3,5c1.5,1.7,4.1,1.8,5.7,0.2l12.9-12.9c1.6-1.6,1.5-4.3-0.2-5.7l-5-4.3
	c2.1-3.6,3.7-7.4,4.7-11.3l6.6,0.5c2.2,0.1,4.2-1.6,4.2-3.9V81.3C311.2,79,309.3,77.2,307,77.4z M254.2,106.7
	c-9,0-16.4-7.3-16.4-16.4S245.1,74,254.2,74c9,0,16.4,7.3,16.4,16.4S263.2,106.7,254.2,106.7z M365.9,63.9l-3.5-1.3
	c0.4-2.3,0.4-4.6,0.2-6.9l3.6-1.1c1.2-0.3,1.9-1.7,1.5-2.9l-3.7-9.6c-0.4-1.2-1.8-1.8-3-1.2l-3.4,1.6c-1.4-1.9-3-3.6-4.7-5.1
	l1.8-3.3c0.6-1.1,0.1-2.5-1-3.1l-9.4-4.3c-1.2-0.5-2.5,0-3,1.3l-1.3,3.5c-2.3-0.4-4.6-0.4-6.9-0.2l-1.1-3.6
	c-0.3-1.2-1.7-1.9-2.9-1.5l-9.6,3.6c-1.2,0.4-1.8,1.8-1.2,3l1.6,3.4c-1.9,1.4-3.6,3-5.1,4.7l-3.3-1.8c-1.1-0.6-2.5-0.1-3.1,1
	l-4.3,9.4c-0.5,1.2,0,2.5,1.3,3l3.5,1.3c-0.4,2.3-0.4,4.6-0.2,6.9l-3.6,1.1c-1.2,0.3-1.9,1.7-1.5,2.9l3.6,9.6c0.4,1.2,1.8,1.8,3,1.2
	l3.4-1.6c1.4,1.9,3,3.6,4.7,5.1l-1.8,3.3c-0.6,1.1-0.1,2.5,1,3.1l9.4,4.3c1.2,0.5,2.5,0,3-1.3l1.3-3.5c2.3,0.4,4.6,0.4,6.9,0.2
	l1.1,3.6c0.3,1.2,1.7,1.9,2.9,1.5l9.6-3.6c1.2-0.4,1.8-1.8,1.2-3l-1.6-3.4c1.9-1.4,3.6-3,5.1-4.7l3.3,1.8c1.1,0.6,2.5,0.1,3.1-1
	l4.3-9.4C367.7,65.7,367.1,64.3,365.9,63.9z M331.7,66.7c-4.7-2.1-6.7-7.6-4.6-12.3c2.1-4.7,7.6-6.7,12.3-4.6
	c4.7,2.1,6.7,7.6,4.6,12.3S336.4,68.8,331.7,66.7z M349.4,138.9l-1.9-2.2c1.1-1.4,2.1-2.9,2.8-4.5l2.8,0.7c1,0.2,1.9-0.4,2.1-1.4
	l1.3-7.8c0.1-1-0.5-1.9-1.5-2l-2.9-0.2c-0.2-1.8-0.6-3.6-1.2-5.2l2.4-1.5c0.8-0.5,1.1-1.6,0.5-2.4l-4.6-6.4
	c-0.6-0.8-1.7-0.9-2.4-0.3l-2.2,1.9c-1.4-1.1-2.9-2.1-4.5-2.8l0.7-2.8c0.2-1-0.4-1.9-1.4-2.1l-7.8-1.3c-1-0.1-1.9,0.5-2,1.5
	l-0.2,2.9c-1.8,0.2-3.6,0.6-5.2,1.2l-1.5-2.4c-0.5-0.8-1.6-1.1-2.4-0.5l-6.4,4.6c-0.8,0.6-0.9,1.7-0.3,2.4l1.9,2.2
	c-1.1,1.4-2.1,2.9-2.8,4.5l-2.8-0.7c-1-0.2-1.9,0.4-2.1,1.4l-1.3,7.8c-0.1,1,0.5,1.9,1.5,2l2.9,0.2c0.2,1.8,0.6,3.6,1.2,5.2
	l-2.4,1.5c-0.8,0.5-1.1,1.6-0.5,2.4l4.6,6.4c0.6,0.8,1.7,0.9,2.4,0.3l2.2-1.9c1.4,1.1,2.9,2.1,4.5,2.8l-0.7,2.8
	c-0.2,1,0.4,1.9,1.4,2.1l7.8,1.3c1,0.1,1.9-0.5,2-1.5l0.2-2.9c1.8-0.2,3.6-0.6,5.2-1.2l1.5,2.4c0.5,0.8,1.6,1.1,2.4,0.5l6.4-4.6
	C349.9,140.8,350,139.7,349.4,138.9z M325.6,127.7c-2.3-3.2-1.6-7.7,1.7-9.9c3.2-2.3,7.7-1.6,9.9,1.7c2.3,3.2,1.6,7.7-1.7,9.9
	C332.4,131.6,327.9,130.9,325.6,127.7z"/>
<path class="st0" d="M548.9,31.5l-23.5,24.5c-2.9,3-7.6,3.1-10.6,0.2l-16.6-15.8c-3-2.9-3.1-7.6-0.2-10.6l23.6-24.5
	c-13.5-3.1-30-0.8-40.3,10c-10.9,11.4-14,27.4-9.4,41.4l-73.2,76.3c-6.5,6.9-6.3,17.7,0.5,24.3l2.6,2.6c6.9,6.6,17.7,6.3,24.2-0.5
	l73.1-76.1c14.3,4.3,30.3,0.6,41.4-10.9C550.8,61.5,552.5,45,548.9,31.5z"/>
<g>
	<path class="st0" d="M-128.6,245.5c2.3-2,4.6-3.9,6.9-5.6c2.6-1.8,4.7-3.1,6.6-4l1.9,21.3c0.6,6.1,8.8,7.6,11.5,2.1l19.4-40.5
		c1.7-3.6-0.5-7.9-4.5-8.6l-42.5-7.1c-6.1-1-9.6,6.6-4.9,10.6l11.8,10.1c-2.2,0.7-4.5,1.5-6.9,2.5c-3.9,1.7-7,3.3-9.9,5
		c-3.6,2.2-6.8,4.4-9.5,6.6c-3,2.5-5.9,5.2-8.5,8.1c-2.4,2.6-4.8,5.7-7.2,9.1l-0.1,0.1c-1.9,2.9-3.9,6.1-5.5,9.4
		c-0.5,1-0.9,1.9-1.3,2.8c-0.2,0.6-0.5,1.1-0.8,1.6l-0.1,0.2c-0.5,1.1-0.9,2.2-1.3,3.2l-0.5,1.2c-0.9,2.7-1.7,5.3-2.5,8.1
		c-0.3,1.3-0.5,2.3-0.8,3.5l-0.1,0.3c-0.1,0.6-0.2,1.2-0.3,1.8c-0.1,0.4-0.1,0.8-0.2,1.2c-0.1,0.4-0.1,0.8-0.2,1.1
		c0,0.2-0.1,0.5-0.1,0.8l-0.1,0.5c-0.1,0.5-0.1,0.9-0.2,1.2l-0.1,0.4c0,0.5-0.1,0.8-0.1,0.8l-0.9,20.7l33.2-15.2v-4.1
		c0-0.1,0-0.6-0.1-1.4c0-0.5-0.1-1.1-0.2-1.6c0-0.2,0-0.4-0.1-0.6l0-0.1c0-0.3,0-0.8-0.1-1.4c0-0.1,0-0.3,0-0.5c0-0.3,0-0.6-0.1-0.9
		V286c0-1.4,0.1-3.3,0.3-5.4c0.1-1,0.3-2.1,0.4-3.3l0.1-0.7c0.2-0.9,0.3-1.8,0.6-2.6c0.5-2.2,1.3-4.5,2.3-7.3
		c1.1-2.8,2.3-5.2,3.5-7.4c1.3-2.3,3-4.8,4.8-7.3C-132.6,249.6-130.6,247.4-128.6,245.5z"/>
	<path class="st0" d="M-69.9,256.8v4.1c0,0.1,0,0.6,0.1,1.4c0,0.5,0.1,1,0.2,1.6c0,0.2,0,0.4,0.1,0.6l0,0.1c0,0.3,0,0.8,0.1,1.4
		c0,0.1,0,0.3,0,0.5c0,0.3,0,0.6,0.1,0.9v2.2c0,1.4-0.1,3.2-0.3,5.4c-0.1,1-0.3,2.1-0.4,3.3l-0.1,0.8c-0.2,0.9-0.3,1.7-0.5,2.6
		c-0.5,2.2-1.3,4.6-2.3,7.2c-1.1,2.8-2.3,5.3-3.6,7.5c-1.3,2.3-3,4.8-4.8,7.3c-1.9,2.4-4,4.6-6,6.5c-2.1,1.9-4.4,3.8-6.8,5.6
		c-2.7,1.9-4.8,3.1-6.7,4.1l-1.8-19.6c-0.6-6.6-9.5-8.2-12.4-2.2l-18.4,38.3c-1.9,3.9,0.5,8.6,4.8,9.3l40.1,6.7
		c6.5,1.1,10.4-7.1,5.4-11.4l-10.5-9c2.2-0.7,4.5-1.5,6.9-2.5c3.9-1.7,7-3.3,9.9-5c3.6-2.2,6.8-4.4,9.5-6.6c3-2.5,5.9-5.2,8.5-8.1
		c2.4-2.6,4.8-5.7,7.2-9.1l0.1-0.1c1.9-2.9,3.9-6.1,5.5-9.4c0.5-1,0.9-1.9,1.3-2.8c0.2-0.5,0.5-1.1,0.8-1.6l0.1-0.2
		c0.5-1.1,0.9-2.2,1.3-3.2l0.5-1.2c0.9-2.7,1.7-5.3,2.5-8.1c0.3-1.3,0.6-2.4,0.8-3.5l0.1-0.3c0.1-0.6,0.2-1.2,0.3-1.8
		c0.1-0.4,0.1-0.8,0.2-1.1c0.1-0.4,0.1-0.8,0.2-1.1c0-0.2,0.1-0.5,0.1-0.7l0.1-0.5c0.1-0.5,0.1-0.8,0.2-1.1l0.1-0.4
		c0-0.5,0.1-0.8,0.1-0.8l0.9-16.4L-69.9,256.8z"/>
</g>
<path class="st0" d="M140,357.3H43.9c-10.4,0-18.8-8.4-18.8-18.8V216.6c0-10.4,8.4-18.8,18.8-18.8H140c10.4,0,18.8,8.4,18.8,18.8
	v121.9C158.8,348.8,150.4,357.3,140,357.3z"/>
<rect x="57.9" y="230.8" class="st1" width="20.6" height="20.6"/>
<rect x="57.9" y="267.3" class="st1" width="20.6" height="20.6"/>
<rect x="57.9" y="303.6" class="st1" width="20.6" height="20.6"/>
<polygon class="st1" points="104.2,255.3 92.1,243.2 96.2,239.1 104.3,247.2 124.6,228.6 128.6,233 "/>
<polygon class="st1" points="104.2,291.8 92.1,279.7 96.2,275.6 104.3,283.7 124.6,265.1 128.6,269.5 "/>
<polygon class="st1" points="104.2,328.3 92.1,316.2 96.2,312.1 104.3,320.2 124.6,301.6 128.6,306 "/>
<path class="st2" d="M531.1,338.8l-8,5.1c-31,19.8-70.7,19.8-101.6,0l-8-5.1v-10.1c0-23.6,14.8-43.7,35.7-51.6l9.4,17.8l13.7,25.9
	L486,295l9.4-17.8c20.9,7.9,35.7,28,35.7,51.6L531.1,338.8L531.1,338.8z M478,272.2h-11.5c-0.6,0-1.1,0.5-1.1,1.1v9.9
	c0,0.6,0.5,1.1,1.1,1.1h1.4l-0.9,22.4l5.2,10.4l5.2-10.6l-0.9-22.2h1.4c0.6,0,1.1-0.5,1.1-1.1v-9.9
	C479.1,272.6,478.6,272.2,478,272.2z M435.2,231.9c0,20.5,16.6,37.1,37.1,37.1s37.1-16.6,37.1-37.1s-16.6-37.1-37.1-37.1
	S435.2,211.4,435.2,231.9z"/>
<path class="st0" d="M738.5,153.1H609.8c-12.1,0-22-10.6-22-23.6V45.2c0-13,9.8-23.6,22-23.6h128.8c12.1,0,22,10.6,22,23.6v84.3
	C760.5,142.5,750.6,153.1,738.5,153.1z M741,61c0-3.9-3.1-7-7-7h-65.7c-3.9,0-7,3.1-7,7s3.1,7,7,7H734C737.8,68,741,64.9,741,61z
	 M741,82.6c0-3.9-3.1-7-7-7h-65.7c-3.9,0-7,3.1-7,7s3.1,7,7,7H734C737.8,89.6,741,86.4,741,82.6z M741,104.1c0-3.9-3.1-7-7-7h-65.7
	c-3.9,0-7,3.1-7,7s3.1,7,7,7H734C737.8,111.1,741,107.9,741,104.1z"/>
<g>
	<g>
		<path class="st0" d="M-81.1,481.6h-80.3h-1.6c-0.9,0.5-2.6,5-2.6,12.7s1.6,12.2,2.6,12.7h83.3c-3.2-3-4.3-7.2-4.3-11.4
			C-84.1,489.6-82,483.8-81.1,481.6z"/>
		<path class="st0" d="M-78,481.6L-78,481.6c-0.8,1.9-7.3,18.5,1.4,24.5l25.4-31.9c0.8-5.9,1.2-15-0.8-19.6l-21.2,26.7
			c-0.5,0.6-1.3,0.7-2,0.4c-0.1-0.1-0.1-0.1-0.2-0.1L-78,481.6L-78,481.6z"/>
	</g>
	<g>
		<path class="st0" d="M-83,508.5h-80.2h-1.6c-0.9,0.5-2.6,5-2.6,12.7c0,7.7,1.6,12.2,2.6,12.7h83.3c-3.2-3-4.3-7.2-4.3-11.4
			C-85.8,516.6-83.8,510.7-83,508.5z"/>
		<path class="st0" d="M-79.7,508.5L-79.7,508.5c-0.8,1.9-7.3,18.5,1.4,24.5l25.4-31.9c0.8-5.9,1.2-15-0.8-19.6L-75,508.3
			c-0.5,0.6-1.3,0.7-2,0.4c-0.1-0.1-0.1-0.1-0.2-0.1L-79.7,508.5L-79.7,508.5z"/>
	</g>
	<g>
		<path class="st0" d="M-50.7,426.3l-25.4,28.2c-0.7,1.9-7.2,18.4,1.5,24.5l25.4-32C-48.4,440.6-48,430.2-50.7,426.3z"/>
		<path class="st0" d="M-163.9,467c0,7.7,1.6,12.2,2.6,12.7h83.3c-3.2-3-4.3-7.2-4.3-11.4c0-5.9,2.1-11.7,2.9-14h-82
			C-162.2,454.8-163.9,459.4-163.9,467z"/>
		<polygon class="st0" points="-129.8,423.7 -160,452.6 -78.2,452.6 -77.5,451.7 -52.1,423.7 		"/>
	</g>
</g>
<ellipse class="st0" cx="628.9" cy="235.1" rx="34.9" ry="9.2"/>
<path class="st0" d="M654,243.9l-7.2,1.5c-5.2,0.8-11.3,1.3-17.9,1.3c-19.3,0-34.9-4.1-34.9-9.2v4.3v2.4v4.3v0.1
	c0,5,15.6,9.2,34.9,9.2s34.9-4.1,34.9-9.2v-0.1v-4.3v-2.4v-4.3C663.8,240,660.1,242.3,654,243.9z"/>
<path class="st0" d="M654,258.1l-7.2,1.5c-5.2,0.8-11.3,1.3-17.9,1.3c-19.3,0-34.9-4.1-34.9-9.2v4.3v2.4v4.3v0.1
	c0,5,15.6,9.2,34.9,9.2s34.9-4.1,34.9-9.2v-0.1v-4.3V256v-4.3C663.8,254.2,660.1,256.4,654,258.1z"/>
<path class="st0" d="M654,272.2l-7.2,1.5c-5.2,0.8-11.3,1.3-17.9,1.3c-19.3,0-34.9-4.1-34.9-9.2v4.3v2.4v4.3v0.1
	c0,5,15.6,9.2,34.9,9.2s34.9-4.1,34.9-9.2v-0.1v-4.3v-2.4v-4.3C663.8,268.2,660.1,270.5,654,272.2z"/>
<ellipse class="st0" cx="720.5" cy="219.8" rx="34.9" ry="9.2"/>
<path class="st0" d="M745.5,228.5l-7.2,1.5c-5.2,0.8-11.3,1.3-17.9,1.3c-19.3,0-34.9-4.1-34.9-9.2v4.3v2.4v4.3v0.1
	c0,5,15.6,9.2,34.9,9.2s34.9-4.1,34.9-9.2v-0.1v-4.3v-2.4v-4.3C755.5,224.6,751.7,226.9,745.5,228.5z"/>
<path class="st0" d="M745.5,242.7l-7.2,1.5c-5.2,0.8-11.3,1.3-17.9,1.3c-19.3,0-34.9-4.1-34.9-9.2v4.3v2.4v4.3v0.1
	c0,5,15.6,9.2,34.9,9.2s34.9-4.1,34.9-9.2v-0.1v-4.3v-2.4v-4.3C755.5,238.8,751.7,241.1,745.5,242.7z"/>
<path class="st0" d="M745.5,256.8l-7.2,1.5c-5.2,0.8-11.3,1.3-17.9,1.3c-19.3,0-34.9-4.1-34.9-9.2v4.3v2.4v4.3v0.1
	c0,5,15.6,9.2,34.9,9.2s34.9-4.1,34.9-9.2v-0.1v-4.3v-2.4v-4.3C755.5,252.9,751.7,255.1,745.5,256.8z"/>
<path class="st0" d="M745.5,270.9l-7.2,1.5c-5.2,0.8-11.3,1.3-17.9,1.3c-19.3,0-34.9-4.1-34.9-9.2v4.3v2.4v4.3v0.1
	c0,5,15.6,9.2,34.9,9.2s34.9-4.1,34.9-9.2v-0.1v-4.3v-2.4v-4.3C755.5,267,751.7,269.3,745.5,270.9z"/>
<ellipse class="st0" cx="685.6" cy="297.4" rx="34.9" ry="9.2"/>
<path class="st0" d="M710.6,306.2l-7.2,1.5c-5.2,0.8-11.3,1.3-17.9,1.3c-19.3,0-34.9-4.1-34.9-9.2v4.3v2.4v4.3v0.1
	c0,5,15.6,9.2,34.9,9.2s34.9-4.1,34.9-9.2v-0.1v-4.3v-2.4v-4.3C720.5,302.3,716.7,304.6,710.6,306.2z"/>
<path class="st0" d="M710.6,320.4l-7.2,1.5c-5.2,0.8-11.3,1.3-17.9,1.3c-19.3,0-34.9-4.1-34.9-9.2v4.3v2.4v4.3v0.1
	c0,5,15.6,9.2,34.9,9.2s34.9-4.1,34.9-9.2V325v-4.3v-2.4v-4.3C720.5,316.5,716.7,318.7,710.6,320.4z"/>
<path class="st0" d="M710.6,334.5l-7.2,1.5c-5.2,0.8-11.3,1.3-17.9,1.3c-19.3,0-34.9-4.1-34.9-9.2v4.3v2.4v4.3v0.1
	c0,5,15.6,9.2,34.9,9.2s34.9-4.1,34.9-9.2v-0.1v-4.3v-2.4V328C720.5,330.5,716.7,332.8,710.6,334.5z"/>
<path class="st0" d="M745.5,299.2l-7.2,1.5c-5.2,0.8-11.3,1.3-17.9,1.3v2.3v2.4v4.3v0.1v2.1c19.3,0,34.9-4.1,34.9-9.2v-0.1v-4.3
	v-2.4v-4.3C755.5,295.3,751.7,297.5,745.5,299.2z"/>
<path class="st0" d="M745.5,285l-7.2,1.5c-5.2,0.8-11.3,1.3-17.9,1.3c-19.3,0-34.9-4.1-34.9-9.2v4.3v2.4v2.9
	c19.3,0,34.9,4.1,34.9,9.2v1.5c19.3,0,34.9-4.1,34.9-9.2v-0.1v-4.3v-2.4v-4.3C755.5,281.1,751.7,283.4,745.5,285z"/>
<path class="st0" d="M650.6,325.1L650.6,325.1v-4.3v-2.4v-3l-3.9,0.8c-5.2,0.8-11.3,1.3-17.9,1.3c-19.3,0-34.9-4.1-34.9-9.2v4.3v2.4
	v4.3v0.1c0,5,15.6,9.2,34.9,9.2c8.2,0,15.8-0.8,21.7-2V325.1z"/>
<path class="st0" d="M650.6,310.9L650.6,310.9v-4.3v-2.4v-3l-3.9,0.8c-5.2,0.8-11.3,1.3-17.9,1.3c-19.3,0-34.9-4.1-34.9-9.2v4.3v2.4
	v4.3v0.1c0,5,15.6,9.2,34.9,9.2c8.2,0,15.8-0.8,21.7-2V310.9z"/>
<path class="st0" d="M650.6,297.4c0-2.9,5.2-5.5,13.2-7.2v-3.6v-2.4v-4.3c0,2.5-3.8,4.8-9.9,6.4l-7.2,1.5
	c-5.2,0.8-11.3,1.3-17.9,1.3c-19.3,0-34.9-4.1-34.9-9.2v4.3v2.4v4.3v0.1c0,5,15.6,9.2,34.9,9.2c8.2,0,15.8-0.8,21.7-2L650.6,297.4
	L650.6,297.4z"/>
<g>
	<polygon class="st0" points="146.4,409 117.3,409 112.7,409 118,440.6 157.7,440.6 	"/>
	<polygon class="st0" points="71.2,409 64.5,409 37.5,409 26.2,440.6 66,440.6 	"/>
	<polygon class="st0" points="77.4,409 72,441.7 111.9,441.7 106.5,409 	"/>
	<path class="st0" d="M25.1,447v109.1h40.5V447H25.1z M59.3,503.3H31.2v-6.3h28.1V503.3z M59.3,486.3H31.2v-30.8h28.1V486.3z"/>
	<path class="st0" d="M71.8,447v109.1h40.5V447H71.8z M106.1,503.3H77.9v-6.3H106L106.1,503.3L106.1,503.3z M106.1,486.3H77.9v-30.8
		H106L106.1,486.3L106.1,486.3z"/>
	<path class="st0" d="M118.3,447v109.1h40.5V447H118.3z M152.8,503.3h-28.1v-6.3h28.1V503.3z M152.8,486.3h-28.1v-30.8h28.1V486.3z"
		/>
</g>
<path class="st0" d="M264.6,417.8c7.5-12.9,26.1-12.9,33.6,0l28,48.5l28,48.5c7.5,12.9-1.9,29.1-16.8,29.1h-56h-56
	c-14.9,0-24.2-16.1-16.8-29.1l28-48.5L264.6,417.8z"/>
<text transform="matrix(1 0 0 1 264.3163 529.1868)" style="fill:#FFFFFF;stroke:#FFFFFF;stroke-width:2;stroke-miterlimit:10; font-family:'Aller'; font-size:117.8998px;">!</text>
<path class="st0" d="M225.8,217.8V349l53.1-40.5L333,349V217.8c0-5.4-5.8-9.9-13-9.9h-81.3C231.6,208,225.8,212.4,225.8,217.8z"/>
<rect x="610.3" y="55" class="st1" width="37.9" height="55.2"/>
<path class="st1" d="M544.8,419.3H404.1c-4.9,0-8.8,4-8.8,8.8v104.7h158.3V428.1C553.6,423.3,549.6,419.3,544.8,419.3z M460,485.8
	V471h24.7v14.8H460z M484.7,491.8v14.8H460v-14.8H484.7z M484.7,450.7V465H460v-14.3H484.7z M454,450.7V465h-24.7v-14.3H454z
	 M454,471v14.8h-24.7V471H454z M490.7,471h24.7v14.8h-24.7V471z M490.7,465v-14.3h24.7V465H490.7z M401.3,450.7h22.1V465h-22.1
	V450.7z M423.4,471v14.8h-22.1V471H423.4z M423.4,491.8v14.8h-22.1v-14.8H423.4z M429.4,491.8H454v14.8h-24.7V491.8z M454,512.6
	v14.2h-24.7v-14.2H454z M460,512.6h24.7v14.2H460V512.6z M490.7,512.6h24.7v14.2h-24.7V512.6z M490.7,506.6v-14.8h24.7v14.8H490.7z
	 M521.4,491.8h26.2v14.8h-26.2V491.8z M521.4,485.8V471h26.2v14.8H521.4z M521.4,465v-14.3h26.2V465H521.4z M401.3,512.6h22.1v14.2
	h-22.1V512.6z M521.4,526.8v-14.2h26.2v14.2H521.4z"/>
<path class="st0" d="M672.8,403.9c-30,0-54.4,24.4-54.4,54.4v23.3h0.3V520c0,14.9,12.1,26.9,26.9,26.9h54.7
	c14.9,0,26.9-12.1,26.9-26.9v-38.3v-17.5v-5.7C727.2,428.4,702.8,403.9,672.8,403.9z M635.3,464.1v-5.7c0-20.6,16.8-37.4,37.4-37.4
	s37.4,16.8,37.4,37.4v5.7H635.3z"/>
<path class="st1" d="M683.5,489.9c0-5.9-4.8-10.7-10.7-10.7s-10.7,4.8-10.7,10.7c0,3.8,2,7.1,4.9,9v17.8c0,3.2,2.6,5.7,5.7,5.7
	s5.8-2.6,5.8-5.7V499C681.5,497.1,683.5,493.7,683.5,489.9z"/>
</svg>
